# xmcd CD database file
#
# Track frame offsets:
#	150
#	19322
#	38605
#	61710
#	86812
#	114825
#	134160
#	163932
#	183830
#	207227
#	228125
#	254317
#
# Disc length: 3678 seconds
#
# Revision: 0
# Processed by: cddbd v1.5.1PL0 Copyright (c) Steve Scherf et al.
# Submitted via: CDex 1.51
#
DISCID=9b0e5c0c
DTITLE=Various Artist - Fantasfeer
DYEAR=1995
DGENRE=New Age
TTITLE0=Gregor Theelen - The Emperor
TTITLE1=Sky - Circle Of Life
TTITLE2=Various Artist - Dear Friends
TTITLE3=Gomer Edwin Evans - Friend Of The Rain Forest
TTITLE4=Paul Vens - Bormes Les Mimosas
TTITLE5=Max Folmer - The Spirit Of Nature
TTITLE6=Simon Cooper - The Journey
TTITLE7=Aeoliah - We Are One Light
TTITLE8=Med Goodall - Please
TTITLE9=Chris Michell - Tranquility
TTITLE10=Cristopher Buckman - Kelly's Song
TTITLE11=Mike Rowland - Come Into The Fairy Ring
EXTD=YEAR: 1995
EXTT0=
EXTT1=
EXTT2=
EXTT3=
EXTT4=
EXTT5=
EXTT6=
EXTT7=
EXTT8=
EXTT9=
EXTT10=
EXTT11=
PLAYORDER=
